#!OML:ASF F:\VICON\USERDATA\INSTALL\Justin_Nancy\Justin_Nancy.ASF
:FULLY-SPECIFIED
:DEGREES
80
root -11.6117 15.7627 -6.80844 -9.05208 43.6933 -10.1387
lowerback 17.342 0.428276 0.416727
upperback 3.99748 1.35863 7.91139
thorax -5.61875 0.787758 8.0251
lowerneck -17.7667 -4.09246 -7.69705
upperneck 14.9479 -4.44016 4.66394
head 7.81511 -2.10113 2.27122
rclavicle 6.87795e-014 -5.56597e-014
rhumerus -55.9885 2.85005 -86.2174
rradius 114.614
rwrist -6.24794
rhand -20.4226 30.3322
rfingers 7.12502
rthumb 5.93183 0.4352
lclavicle 6.87795e-014 -5.56597e-014
lhumerus -44.1718 -16.404 93.5201
lradius 103.492
lwrist 20.4934
lhand -19.1639 9.19973
lfingers 7.12502
lthumb 7.1469 39.0591
rfemur -6.26798 5.18041 3.26606
rtibia 33.3683
rfoot -13.6924 -9.72592
rtoes -30.6293
lfemur -47.3524 15.3928 -21.1896
ltibia 79.1485
lfoot -12.4573 -5.46864
ltoes 0.528066
81
root -11.6227 15.6542 -6.57661 -10.06 44.5003 -11.5775
lowerback 17.9974 0.75853 1.12842
upperback 3.84051 1.97006 7.82185
thorax -6.20182 1.09001 7.37573
lowerneck -17.7653 -3.98594 -7.54822
upperneck 15.006 -4.35658 4.77802
head 7.82765 -2.04163 2.2961
rclavicle -1.06151e-013 3.65764e-014
rhumerus -55.576 3.10882 -85.9187
rradius 115.672
rwrist -11.3017
rhand -14.5652 29.7608
rfingers 7.12502
rthumb 11.5841 0.100954
lclavicle -1.06151e-013 3.65764e-014
lhumerus -43.9315 -15.402 92.5988
lradius 103.379
lwrist 19.6177
lhand -20.3693 8.9438
lfingers 7.12502
lthumb 5.98325 38.8393
rfemur -5.76651 3.58561 4.71543
rtibia 34.376
rfoot -15.7332 -10.3236
rtoes -31.0535
lfemur -49.6422 16.8126 -21.4865
ltibia 79.1774
lfoot -13.0733 -4.17739
ltoes -4.28549
82
root -11.6141 15.5558 -6.3324 -10.08 45.7682 -11.7471
lowerback 18.0486 1.1897 0.570524
upperback 3.84243 2.43426 7.74166
thorax -6.30223 1.32955 7.50184
lowerneck -17.9607 -3.92794 -7.45093
upperneck 15.0145 -4.24068 4.53181
head 7.84876 -2.00264 2.21017
rclavicle -3.26007e-014 1.11319e-014
rhumerus -55.0332 4.39873 -86.1325
rradius 115.163
rwrist -9.89668
rhand -16.3654 28.6137
rfingers 7.12502
rthumb 9.84766 -1.13602
lclavicle -3.26007e-014 1.11319e-014
lhumerus -43.2212 -14.0431 92.1016
lradius 103.012
lwrist 18.178
lhand -20.6205 7.45093
lfingers 7.12502
lthumb 5.7408 37.3532
rfemur -5.12625 1.57044 5.03521
rtibia 35.3709
rfoot -17.5359 -11.1343
rtoes -32.1389
lfemur -51.6169 17.5997 -23.0912
ltibia 78.8213
lfoot -13.4086 -3.01895
ltoes -9.89352
83
root -11.5654 15.4857 -6.10031 -10.4834 47.2248 -12.591
lowerback 17.9102 1.35204 0.802973
upperback 3.768 2.69102 7.69265
thorax -6.32914 1.454 7.24807
lowerneck -18.2684 -3.92113 -7.49702
upperneck 15.1383 -4.18066 4.44073
head 7.93828 -1.98259 2.19158
rclavicle -1.47101e-014 -3.18055e-014
rhumerus -54.2284 5.95597 -86.0852
rradius 114.788
rwrist -9.18282
rhand -17.2037 28.4185
rfingers 7.12502
rthumb 9.03877 -1.36786
lclavicle -1.47101e-014 -3.18055e-014
lhumerus -42.6801 -12.4807 91.6909
lradius 102.993
lwrist 16.7219
lhand -20.5275 7.12767
lfingers 7.12502
lthumb 5.83054 37.0275
rfemur -4.3288 -0.471902 5.69969
rtibia 36.2704
rfoot -19.5245 -11.5227
rtoes -32.4366
lfemur -53.4242 17.6642 -24.1756
ltibia 78.3333
lfoot -13.1677 -2.6541
ltoes -11.3015
84
root -11.508 15.4222 -5.90101 -12.1113 48.2709 -15.1055
lowerback 17.8255 1.37108 2.3031
upperback 3.78654 3.02465 7.92777
thorax -6.2451 1.59899 6.55395
lowerneck -18.6866 -3.82577 -7.28612
upperneck 15.2062 -4.01866 4.14044
head 8.01152 -1.91891 2.0728
rclavicle 6.91771e-014 -3.97569e-014
rhumerus -52.7643 7.85549 -85.5775
rradius 114.248
rwrist -8.23133
rhand -17.6705 28.6394
rfingers 7.12502
rthumb 8.58836 -1.16589
lclavicle 6.91771e-014 -3.97569e-014
lhumerus -42.0177 -10.6727 91.4205
lradius 103.202
lwrist 15.485
lhand -20.4918 7.43089
lfingers 7.12502
lthumb 5.86504 37.3297
rfemur -3.722 -1.81054 7.58146
rtibia 37.0234
rfoot -21.3236 -11.6699
rtoes -31.7606
lfemur -55.3937 17.6951 -24.0802
ltibia 77.875
lfoot -12.5928 -2.37729
ltoes -8.58959
85
root -11.4582 15.3567 -5.70181 -14.0043 48.9993 -17.9097
lowerback 17.8863 1.44167 3.75685
upperback 3.77187 3.43694 8.2183
thorax -6.27326 1.78582 5.93724
lowerneck -18.7744 -3.61506 -6.98178
upperneck 15.0642 -3.76695 3.94547
head 7.95345 -1.79968 1.98895
rclavicle 3.65764e-014 6.36111e-014
rhumerus -51.1137 10.0496 -84.8941
rradius 113.654
rwrist -7.38825
rhand -18.1427 28.5575
rfingers 7.12502
rthumb 8.13265 -1.26596
lclavicle 3.65764e-014 6.36111e-014
lhumerus -41.4927 -8.66314 91.2422
lradius 103.532
lwrist 14.1734
lhand -20.5142 7.35185
lfingers 7.12502
lthumb 5.84336 37.2513
rfemur -3.2748 -2.71364 9.71123
rtibia 37.6701
rfoot -22.4834 -11.7734
rtoes -30.8408
lfemur -57.3658 17.9708 -23.8031
ltibia 77.3732
lfoot -12.1996 -1.31098
ltoes -6.80485
86
root -11.3985 15.2985 -5.48775 -15.8069 49.8045 -20.4059
lowerback 18.2126 1.52946 4.95063
upperback 3.51881 3.84973 8.28552
thorax -6.68752 1.96578 5.22563
lowerneck -18.7 -3.48216 -6.73257
upperneck 15.2159 -3.68989 4.08984
head 7.9845 -1.73501 2.0082
rclavicle -2.60408e-014 5.40694e-014
rhumerus -49.9146 11.9371 -84.5405
rradius 113.183
rwrist -7.04881
rhand -19.0904 28.3768
rfingers 7.12502
rthumb 7.21788 -1.48014
lclavicle -2.60408e-014 5.40694e-014
lhumerus -41.7653 -7.02374 91.0426
lradius 104.318
lwrist 13.3277
lhand -19.4771 6.92596
lfingers 7.12502
lthumb 6.84457 36.7953
rfemur -2.64655 -3.67098 11.5934
rtibia 38.2281
rfoot -23.3705 -11.8728
rtoes -29.9327
lfemur -59.0066 18.1258 -23.7919
ltibia 76.7551
lfoot -11.674 -0.849172
ltoes -7.21072
87
root -11.3277 15.2537 -5.27502 -17.2612 50.6835 -22.3828
lowerback 18.4 1.70287 5.64483
upperback 3.32941 4.25838 8.27853
thorax -6.97126 2.14744 4.72036
lowerneck -18.9553 -3.54028 -6.81339
upperneck 15.6689 -3.83733 4.58425
head 8.20075 -1.757 2.16872
rclavicle -6.63941e-014 8.18993e-014
rhumerus -48.6234 13.4172 -83.8772
rradius 112.832
rwrist -6.41279
rhand -18.9647 28.6811
rfingers 7.12502
rthumb 7.33925 -1.17162
lclavicle -6.63941e-014 8.18993e-014
lhumerus -42.0212 -5.65739 91.1781
lradius 105.214
lwrist 12.8467
lhand -18.9758 7.05137
lfingers 7.12502
lthumb 7.32851 36.9045
rfemur -1.8609 -4.71492 13.0528
rtibia 38.6885
rfoot -24.1659 -11.9778
rtoes -29.3111
lfemur -60.3116 18.0024 -24.1666
ltibia 75.9078
lfoot -11.095 -0.391504
ltoes -8.77979
88
root -11.2503 15.2198 -5.07906 -18.8263 51.5115 -24.4261
lowerback 18.5999 1.79391 6.1828
upperback 3.25604 4.54132 8.42045
thorax -7.14671 2.27627 4.49859
lowerneck -19.1212 -3.5169 -6.63424
upperneck 15.7347 -3.87244 4.71586
head 8.25259 -1.74678 2.17854
rclavicle 9.74045e-014 -4.21423e-014
rhumerus -46.9185 15.109 -82.8408
rradius 112.616
rwrist -5.86737
rhand -18.7974 28.3724
rfingers 7.12502
rthumb 7.50067 -1.47464
lclavicle 9.74045e-014 -4.21423e-014
lhumerus -42.1832 -4.03129 91.7166
lradius 106.175
lwrist 12.4116
lhand -19.8415 7.49623
lfingers 7.12502
lthumb 6.49282 37.3767
rfemur -0.978815 -5.85791 14.4723
rtibia 38.9208
rfoot -24.7065 -12.4744
rtoes -29.405
lfemur -61.4093 17.7181 -24.5239
ltibia 74.8618
lfoot -10.2407 0.0961617
ltoes -8.59624
89
root -11.1621 15.2084 -4.88385 -20.2699 52.3584 -26.1983
lowerback 18.67 1.86514 6.16753
upperback 3.34254 4.67683 8.70634
thorax -7.12481 2.3564 4.78793
lowerneck -18.989 -3.27963 -6.29972
upperneck 15.2526 -3.59188 4.48589
head 8.0396 -1.61895 2.0816
rclavicle 6.34123e-014 -3.57812e-014
rhumerus -44.8625 17.01 -81.5454
rradius 112.402
rwrist -5.76375
rhand -19.3091 27.836
rfingers 7.12502
rthumb 7.00678 -2.02807
lclavicle 6.34123e-014 -3.57812e-014
lhumerus -42.4486 -2.42545 92.3904
lradius 107.417
lwrist 12.37
lhand -21.3402 7.33223
lfingers 7.12502
lthumb 5.04587 37.2522
rfemur 0.0765945 -7.03423 15.7
rtibia 38.8356
rfoot -24.834 -13.616
rtoes -31.2052
lfemur -62.0869 17.3706 -25.0087
ltibia 73.5847
lfoot -9.11459 0.715475
ltoes -6.85099
90
root -11.0576 15.2169 -4.68144 -20.3664 53.7264 -26.4983
lowerback 18.3243 2.01771 5.03658
upperback 3.45079 4.61654 8.75863
thorax -6.90801 2.36186 5.51028
lowerneck -19.1653 -3.12555 -6.2545
upperneck 15.0304 -3.36937 4.44137
head 7.98096 -1.51331 2.08531
rclavicle -7.17613e-014 -2.46493e-014
rhumerus -42.6834 18.5811 -80.1101
rradius 112.314
rwrist -6.35003
rhand -17.626 28.3882
rfingers 7.12502
rthumb 8.63129 -1.41538
lclavicle -7.17613e-014 -2.46493e-014
lhumerus -42.7762 -1.01606 93.0754
lradius 108.937
lwrist 13.0079
lhand -22.2476 7.1452
lfingers 7.12502
lthumb 4.16964 37.0841
rfemur 1.26916 -8.41692 15.7283
rtibia 38.355
rfoot -24.7776 -14.6852
rtoes -32.9575
lfemur -62.4968 16.7466 -26.622
ltibia 72.0952
lfoot -7.88958 1.57083
ltoes -4.10825
91
root -10.9438 15.2256 -4.49133 -19.9801 55.1759 -26.4749
lowerback 18.1406 2.20014 4.11835
upperback 3.28435 4.65008 8.53443
thorax -7.04228 2.39216 5.78137
lowerneck -19.4702 -3.28013 -6.74036
upperneck 15.0738 -3.52396 4.94293
head 8.07551 -1.5604 2.31181
rclavicle -1.25831e-013 -1.59028e-015
rhumerus -41.0156 19.4267 -79.0826
rradius 112.502
rwrist -7.01791
rhand -15.35 28.9158
rfingers 7.12502
rthumb 10.8272 -0.785085
lclavicle -1.25831e-013 -1.59028e-015
lhumerus -43.2197 -0.175737 93.7673
lradius 110.369
lwrist 13.7802
lhand -22.655 7.25696
lfingers 7.12502
lthumb 3.77628 37.2032
rfemur 2.3605 -9.52879 15.4489
rtibia 37.5445
rfoot -24.7989 -15.0183
rtoes -33.5396
lfemur -62.9236 16.0484 -28.5302
ltibia 70.541
lfoot -6.8378 2.69439
ltoes -2.62029
92
root -10.8235 15.2349 -4.3069 -20.6337 56.2115 -27.5914
lowerback 18.2702 2.40857 4.05201
upperback 2.99225 4.93101 8.34802
thorax -7.44146 2.52221 5.53816
lowerneck -19.4527 -3.48574 -7.08416
upperneck 14.9885 -3.81451 5.49582
head 8.08089 -1.66161 2.51679
rclavicle -5.14852e-014 2.62396e-014
rhumerus -39.708 19.4824 -78.1312
rradius 112.82
rwrist -6.67474
rhand -14.5474 29.0667
rfingers 7.12502
rthumb 11.6012 -0.592206
lclavicle -5.14852e-014 2.62396e-014
lhumerus -43.9559 -0.0895157 94.3137
lradius 111.843
lwrist 14.4716
lhand -22.8411 7.50433
lfingers 7.12502
lthumb 3.59651 37.4537
rfemur 3.595 -9.94877 16.114
rtibia 36.4367
rfoot -24.6805 -15.1908
rtoes -33.0428
lfemur -63.2047 15.5689 -29.6205
ltibia 69.0733
lfoot -5.62364 3.94349
ltoes -2.19963
93
root -10.6954 15.248 -4.11474 -21.5183 57.0184 -28.859
lowerback 18.4073 2.6823 3.8574
upperback 2.78617 5.27629 8.25041
thorax -7.77536 2.69024 5.4482
lowerneck -19.5885 -3.61014 -7.34543
upperneck 15.0776 -3.99889 5.97955
head 8.16308 -1.71237 2.69917
rclavicle 5.46658e-014 1.27222e-013
rhumerus -38.2805 18.863 -76.727
rradius 113.225
rwrist -5.63378
rhand -13.1044 30.1511
rfingers 7.12502
rthumb 12.9925 0.575694
lclavicle 5.46658e-014 1.27222e-013
lhumerus -44.7279 -0.37928 94.8489
lradius 113.296
lwrist 15.0987
lhand -22.7928 7.54645
lfingers 7.12502
lthumb 3.64318 37.4951
rfemur 5.06499 -10.1543 17.0365
rtibia 35.1711
rfoot -24.3679 -15.582
rtoes -32.9372
lfemur -63.2446 15.354 -30.4624
ltibia 67.6736
lfoot -4.44059 5.1208
ltoes -0.430493
94
root -10.5597 15.2588 -3.9222 -23.4741 57.3829 -31.2711
lowerback 18.6489 2.8971 4.54391
upperback 2.6076 5.73167 8.16026
thorax -8.06256 2.88412 4.83018
lowerneck -19.7504 -3.75933 -7.30376
upperneck 15.1122 -4.31827 6.55611
head 8.23897 -1.79781 2.84572
rclavicle 1.13307e-014 -5.56597e-015
rhumerus -37.8165 19.054 -76.8234
rradius 114.273
rwrist -8.52028
rhand -14.9303 29.4657
rfingers 7.12502
rthumb 11.2319 -0.213619
lclavicle 1.13307e-014 -5.56597e-015
lhumerus -45.4878 -1.1602 95.1796
lradius 114.523
lwrist 15.4839
lhand -22.8206 7.09455
lfingers 7.12502
lthumb 3.61631 37.0436
rfemur 6.58847 -10.2892 18.7095
rtibia 33.8676
rfoot -23.9136 -15.848
rtoes -33.189
lfemur -63.2744 15.2951 -30.3203
ltibia 66.5069
lfoot -3.34762 6.16988
ltoes 2.55842
